# xmcd
#
# Track frame offsets: 
#        150
#        18623
#        34628
#        53722
#        70337
#        87674
#        102475
#        113015
#        133619
#        151999
#        161864
#        177947
#        191059
#        214622
#        233015
#        251545
#        281933
#
# Disc length: 3939 seconds
#
# Revision: 0
# Processed by: cddbd v1.5.1PL2 Copyright (c) Steve Scherf et al.
# Submitted via: ExactAudioCopy v0.95b2
#
DISCID=f40f6111
DTITLE=Ирина Богушевская - Нежные вещи (live)
DYEAR=2005
DGENRE=
TTITLE0=Вечер и ночь
TTITLE1=Август
TTITLE2=Госпожа твоих снов
TTITLE3=Нежная осень
TTITLE4=Джинджи (Din-Di)
TTITLE5=Луч
TTITLE6=Улетаю
TTITLE7=Наперегонки с волной
TTITLE8=Нежные вещи
TTITLE9=Здесь и вместе
TTITLE10=История про дерево
TTITLE11=Блудный ангел
TTITLE12=Песенка на память
TTITLE13=У нас в раю
TTITLE14=Ангел моей печали
TTITLE15=Устами младенца
TTITLE16=Парад
EXTD=
EXTT0=
EXTT1=
EXTT2=
EXTT3=
EXTT4=
EXTT5=
EXTT6=
EXTT7=
EXTT8=
EXTT9=
EXTT10=
EXTT11=
EXTT12=
EXTT13=
EXTT14=
EXTT15=
EXTT16=
PLAYORDER=
